<svg width="33.019mm" height="32.476mm" version="1.1" viewBox="0 0 33.019 32.476" xmlns="http://www.w3.org/2000/svg">
	<g transform="translate(-26.991 -122.22)">
		<ellipse cx="43.501" cy="138.81" rx="14.442" ry="13.826" fill="#520" stroke="#2b1100" stroke-linecap="round" stroke-linejoin="round" stroke-width="2.1347" style="paint-order:stroke fill markers"/>
		<path d="m43.61 141.15a14.923 15.126 0 0 0-11.762 5.8465 14.923 15.126 0 0 0 11.665 5.6944 14.923 15.126 0 0 0 11.763-5.8465 14.923 15.126 0 0 0-11.665-5.6944z" fill="#008080" opacity=".5" style="paint-order:stroke fill markers"/>
		<path class="st2" d="m43.712 132.7v11.057c1.0812 7e-3 2.1623-0.47757 2.9848-1.4791v-6.8186c0-1.8439-1.4924-2.7592-2.9848-2.7592z" fill="#edd9b4"/>
		<path class="st3" d="m40.727 135.46v6.8119c0.82247 0.96839 1.9036 1.4725 2.9848 1.4791v-11.05c-1.4924 0-2.9848 0.91533-2.9848 2.7592z" fill="#dcc5a1"/>
		<polygon class="st5" transform="matrix(.066328 0 0 .066328 26.732 120.81)" points="336.5 319.5 291.3 382.2 256 346 301 303.3" clip-rule="evenodd" fill="#008080" stroke="#808080"/>
		<polygon class="st5" transform="matrix(.066328 0 0 .066328 26.732 120.81)" points="175.5 319.5 220.7 382.2 256 346 211 303.3" clip-rule="evenodd" fill="#008080" stroke="#808080"/>
		<path class="st2" d="m43.785 138.15h0.05306c1.4592-0.0663 0.24541 1.6383 2.1026 0.64338 1.8572-0.99492 1.7776-3.8935 0.849-3.9598-0.92196-0.0663-1.6847 0.59032-2.998 0.59695h-0.01327-0.0597v2.7195h0.06633z" fill="#edd9b4"/>
		<path class="st6" d="m43.712 140.17h0.01327-0.01327z" fill="#fddecc" stroke="#808080" stroke-width=".066328"/>
		<path class="st6" d="m43.407 140.14c-0.0199-7e-3 -0.04643-7e-3 -0.06633-0.0133 0.0199 7e-3 0.04643 7e-3 0.06633 0.0133z" fill="#fddecc" stroke="#808080" stroke-width=".066328"/>
		<path class="st3" d="m40.867 134.9c-0.9286 0.0663-1.2072 2.8322 0.65002 3.8271 1.7975 0.96175 0.92196-0.5439 2.1955-0.57706v-2.7195c-1.2868-0.0199-1.9302-0.59695-2.8455-0.53062z" fill="#dcc5a1"/>
		<path class="st6" d="m43.5 140.16c0.07296 7e-3 0.14592 0.0133 0.21225 0.0133-0.06633 0-0.13929-7e-3 -0.21225-0.0133z" fill="#fddecc" stroke="#808080" stroke-width=".066328"/>
		<path class="st2" d="m51.472 131.18c-0.27858-0.0929-0.59032 0.0332-0.87553 0.29848 0.26531-3.7343-0.76941-8.2512-6.8849-8.2512v11.707h0.05306 0.0199c1.0347-0.0133 2.8123-1.0347 3.5287-0.22552 1.0679 1.2204 0.24542 3.5088-0.66992 4.1256 1.2602-0.87554 2.4409-1.97 2.8322-2.5404 0.14592-0.21226 0.4245-0.9485 0.67655-1.9766 0.06633 0.0663 0.15256 0.1194 0.23878 0.15256 0.52399 0.17245 1.1939-0.4245 1.4924-1.3332 0.29848-0.9087 0.11276-1.7842-0.41123-1.9567z" fill="#edd9b4"/>
		<path class="st3" d="m36.948 131.34c-0.23878-0.17245-0.48419-0.23878-0.70971-0.16582-0.52399 0.17245-0.70971 1.048-0.41123 1.9567 0.29848 0.9087 0.96839 1.5056 1.4924 1.3332 0.0398-0.0133 0.07959-0.0332 0.11276-0.0531 0.24542 0.97502 0.51073 1.6781 0.65002 1.8771 0.4046 0.59695 1.6648 1.7511 2.9781 2.6399-1.2602-1.0612-1.7643-3.1174-0.62348-4.1787 0.76278-0.70971 2.3746 0.14592 3.4093 0.17245v-11.7c-6.0425 0-7.1303 4.4108-6.8981 8.1186z" fill="#dcc5a1"/>
		<path class="st7" d="m43.5 140.16c-0.03316-7e-3 -0.0597-7e-3 -0.09286-0.0133 0.03316 7e-3 0.06633 7e-3 0.09286 0.0133z" fill="#0b0c14" stroke="#808080" stroke-width=".066328"/>
		<path class="st7" d="m43.785 140.17h0.01327c-0.02653 0-0.05306 7e-3 -0.07959 7e-3 0.02653-7e-3 0.04643-7e-3 0.06633-7e-3z" fill="#0b0c14" stroke="#808080" stroke-width=".066328"/>
		<path class="st7" d="m46.63 138.84c0.0066 0 0.0066-7e-3 0.01326-0.0133-0.01326 7e-3 -0.0199 0.0133-0.03316 0.0265 0.0066 0 0.01326-7e-3 0.01991-0.0133z" fill="#0b0c14" stroke="#808080" stroke-width=".066328"/>
		<g transform="matrix(.25069 0 0 .25069 20.974 92.333)" fill="#520" stroke="#808080" stroke-width=".26458">
			<path d="m105.07 169.05c-2.8575-3.2544-9.9483 0.8202-14.076 0.89958h-0.07937-0.21167c-4.1275-0.10583-10.557-3.5454-13.6-0.68792-4.5508 4.2333-2.54 12.435 2.4871 16.669 3.4131 2.3283 6.9056 4.2069 9.6308 4.7625 0.07937 0.0265 0.18521 0.0529 0.26458 0.0529 0.13229 0.0265 0.23812 0.0265 0.37042 0.0529 0.29104 0.0265 0.58208 0.0529 0.84667 0.0529h0.05292c0.10583 0 0.21167 0 0.3175-0.0265 2.9104-0.1852 7.0908-2.54 11.192-5.2123 0.0529-0.0265 0.0794-0.0529 0.13229-0.10583 3.6512-2.4606 6.9321-11.589 2.6723-16.457zm-5.4769 16.298c-7.4083 3.9688-2.5665-2.831-8.3873-2.5665h-0.21167-0.29104c-5.08 0.13229-1.5875 6.1383-8.7577 2.3019-7.4083-3.9688-6.2971-15.002-2.5929-15.266 3.6512-0.26459 6.2177 2.0373 11.351 2.1167h0.23812 0.05292c5.2652-0.0265 8.2815-2.6458 11.959-2.3812 3.7042 0.26459 4.0217 11.827-3.3602 15.796z"/>
			<path class="st9" d="m80.303 155.56c1.4552 0 2.6458 1.3494 2.6458 2.9898 0 1.6669-1.1906 2.9898-2.6458 2.9898-1.4552 0-2.6458-1.3494-2.6458-2.9898 0-1.6404 1.1642-2.9898 2.6458-2.9898"/>
			<path class="st9" d="m101.73 155.56c1.4552 0 2.6458 1.3494 2.6458 2.9898 0 1.6669-1.1906 2.9898-2.6458 2.9898s-2.6458-1.3494-2.6458-2.9898c0-1.6404 1.1906-2.9898 2.6458-2.9898"/>
		</g>
		<path class="st10" d="m41.887 136.28c0.3403 0.51736 1.1084 0.88217 2.0029 0.88217s1.6529-0.36481 2.0029-0.88217z" fill="#fff" stroke="#808080" stroke-width=".080305"/>
		<path transform="scale(.26458)" d="m174.55 534.45-9.3809 9.1211v33.656a56.404 57.171 0 0 0 44.266-22.086 56.404 57.171 0 0 0-34.885-20.691z" fill="#008080" opacity=".5" style="paint-order:stroke fill markers"/>
	</g>
	<style type="text/css">.st0{fill:#B9DAF3;}
	.st1{fill:#D1E6F7;}
	.st2{fill:#EDD9B4;}
	.st3{fill:#DCC5A1;}
	.st4{fill-rule:evenodd;clip-rule:evenodd;fill:#BC9F82;}
	.st5{fill-rule:evenodd;clip-rule:evenodd;fill:#89BCE5;}
	.st6{fill:#FDDECC;}
	.st7{fill:#0B0C14;}
	.st8{fill-rule:evenodd;clip-rule:evenodd;}
	.st9{fill:#342214;}
	.st10{fill:#FFFFFF;}
	.st11{fill:#89BCE5;}</style>
</svg>
