<?xml version="1.0" encoding="UTF-8" standalone="no"?>
<!-- Created with Inkscape (http://www.inkscape.org/) -->

<svg
   xmlns:dc="http://purl.org/dc/elements/1.1/"
   xmlns:cc="http://creativecommons.org/ns#"
   xmlns:rdf="http://www.w3.org/1999/02/22-rdf-syntax-ns#"
   xmlns:svg="http://www.w3.org/2000/svg"
   xmlns="http://www.w3.org/2000/svg"
   xmlns:sodipodi="http://sodipodi.sourceforge.net/DTD/sodipodi-0.dtd"
   xmlns:inkscape="http://www.inkscape.org/namespaces/inkscape"
   width="81.435196mm"
   height="76.158936mm"
   viewBox="0 0 81.435196 76.158936"
   version="1.1"
   id="svg8"
   inkscape:version="0.92.4 (5da689c313, 2019-01-14)"
   sodipodi:docname="cartesian.svg">
  <defs
     id="defs2" />
  <sodipodi:namedview
     id="base"
     pagecolor="#5f6363"
     bordercolor="#666666"
     borderopacity="1.0"
     inkscape:pageopacity="0"
     inkscape:pageshadow="2"
     inkscape:zoom="1.4"
     inkscape:cx="50.155781"
     inkscape:cy="152.83877"
     inkscape:document-units="mm"
     inkscape:current-layer="layer1"
     showgrid="false"
     inkscape:snap-global="false"
     fit-margin-left="1"
     fit-margin-top="1"
     fit-margin-bottom="1"
     fit-margin-right="1"
     inkscape:window-width="1366"
     inkscape:window-height="715"
     inkscape:window-x="-8"
     inkscape:window-y="-8"
     inkscape:window-maximized="1" />
  <metadata
     id="metadata5">
    <rdf:RDF>
      <cc:Work
         rdf:about="">
        <dc:format>image/svg+xml</dc:format>
        <dc:type
           rdf:resource="http://purl.org/dc/dcmitype/StillImage" />
        <dc:title></dc:title>
      </cc:Work>
    </rdf:RDF>
  </metadata>
  <g
     inkscape:label="Layer 1"
     inkscape:groupmode="layer"
     id="layer1"
     transform="translate(-60.735155,-97.62408)">
    <g
       id="g1125"
       style="opacity:0.7;fill:none;stroke:#ffffff">
      <path
         inkscape:connector-curvature="0"
         id="path951"
         d="m 135.88244,101.20833 c 0,48.19197 0,48.19197 0,48.19197"
         style="fill:none;stroke:#ffffff;stroke-width:0.16500001;stroke-linecap:butt;stroke-linejoin:miter;stroke-miterlimit:4;stroke-dasharray:none;stroke-opacity:1" />
      <path
         inkscape:connector-curvature="0"
         id="path951-2"
         d="m 130.5125,101.40403 c 0,48.19197 0,48.19197 0,48.19197"
         style="fill:none;stroke:#ffffff;stroke-width:0.16500001;stroke-linecap:butt;stroke-linejoin:miter;stroke-miterlimit:4;stroke-dasharray:none;stroke-opacity:1" />
      <path
         inkscape:connector-curvature="0"
         id="path951-23"
         d="m 125.4881,101.68081 c 0,48.19197 0,48.19197 0,48.19197"
         style="fill:none;stroke:#ffffff;stroke-width:0.16500001;stroke-linecap:butt;stroke-linejoin:miter;stroke-miterlimit:4;stroke-dasharray:none;stroke-opacity:1" />
      <path
         inkscape:connector-curvature="0"
         id="path951-2-9"
         d="m 120.40492,101.31698 c 0,48.19197 0,48.19197 0,48.19197"
         style="fill:none;stroke:#ffffff;stroke-width:0.16500001;stroke-linecap:butt;stroke-linejoin:miter;stroke-miterlimit:4;stroke-dasharray:none;stroke-opacity:1" />
      <path
         inkscape:connector-curvature="0"
         id="path951-2-8"
         d="m 115.19316,101.45061 c 0,48.19197 0,48.19197 0,48.19197"
         style="fill:none;stroke:#ffffff;stroke-width:0.16500001;stroke-linecap:butt;stroke-linejoin:miter;stroke-miterlimit:4;stroke-dasharray:none;stroke-opacity:1" />
      <path
         inkscape:connector-curvature="0"
         id="path951-2-6"
         d="m 109.98141,101.18334 c 0,48.19197 0,48.19197 0,48.19197"
         style="fill:none;stroke:#ffffff;stroke-width:0.16500001;stroke-linecap:butt;stroke-linejoin:miter;stroke-miterlimit:4;stroke-dasharray:none;stroke-opacity:1" />
      <path
         inkscape:connector-curvature="0"
         id="path951-2-0"
         d="m 104.76965,101.71788 c 0,48.19197 0,48.19197 0,48.19197"
         style="fill:none;stroke:#ffffff;stroke-width:0.16500001;stroke-linecap:butt;stroke-linejoin:miter;stroke-miterlimit:4;stroke-dasharray:none;stroke-opacity:1" />
      <path
         inkscape:connector-curvature="0"
         id="path951-2-3"
         d="m 99.557899,101.58424 c 0,48.19197 0,48.19197 0,48.19197"
         style="fill:none;stroke:#ffffff;stroke-width:0.16500001;stroke-linecap:butt;stroke-linejoin:miter;stroke-miterlimit:4;stroke-dasharray:none;stroke-opacity:1" />
      <path
         inkscape:connector-curvature="0"
         id="path951-2-92"
         d="m 94.346144,101.18334 c 0,48.19197 0,48.19197 0,48.19197"
         style="fill:none;stroke:#ffffff;stroke-width:0.16500001;stroke-linecap:butt;stroke-linejoin:miter;stroke-miterlimit:4;stroke-dasharray:none;stroke-opacity:1" />
    </g>
    <path
       style="fill:none;stroke:#ffffff;stroke-width:0.26458332px;stroke-linecap:butt;stroke-linejoin:miter;stroke-opacity:1"
       d="M 89.668926,104.16503 H 136.70836"
       id="path1333"
       inkscape:connector-curvature="0" />
    <path
       style="fill:none;stroke:#ffffff;stroke-width:0.26458332px;stroke-linecap:butt;stroke-linejoin:miter;stroke-opacity:1"
       d="M 89.802562,109.3768 H 136.842"
       id="path1333-6"
       inkscape:connector-curvature="0" />
    <path
       style="fill:none;stroke:#ffffff;stroke-width:0.26458332px;stroke-linecap:butt;stroke-linejoin:miter;stroke-opacity:1"
       d="M 89.936197,114.58855 H 136.97563"
       id="path1333-3"
       inkscape:connector-curvature="0" />
    <path
       style="fill:none;stroke:#ffffff;stroke-width:0.26458332px;stroke-linecap:butt;stroke-linejoin:miter;stroke-opacity:1"
       d="M 89.535293,119.3994 H 136.57473"
       id="path1333-4"
       inkscape:connector-curvature="0" />
    <path
       style="fill:none;stroke:#ffffff;stroke-width:0.26458332px;stroke-linecap:butt;stroke-linejoin:miter;stroke-opacity:1"
       d="M 89.668927,124.61116 H 136.70836"
       id="path1333-0"
       inkscape:connector-curvature="0" />
    <path
       style="fill:none;stroke:#ffffff;stroke-width:0.26458332px;stroke-linecap:butt;stroke-linejoin:miter;stroke-opacity:1"
       d="M 89.401658,129.68928 H 136.44109"
       id="path1333-2"
       inkscape:connector-curvature="0" />
    <path
       style="fill:none;stroke:#ffffff;stroke-width:0.26458332px;stroke-linecap:butt;stroke-linejoin:miter;stroke-opacity:1"
       d="M 89.802562,134.7674 H 136.842"
       id="path1333-8"
       inkscape:connector-curvature="0" />
    <path
       style="fill:none;stroke:#ffffff;stroke-width:0.26458332px;stroke-linecap:butt;stroke-linejoin:miter;stroke-opacity:1"
       d="M 89.936197,139.97915 H 136.97563"
       id="path1333-62"
       inkscape:connector-curvature="0" />
    <path
       style="fill:none;stroke:#ffffff;stroke-width:0.26458332px;stroke-linecap:butt;stroke-linejoin:miter;stroke-opacity:1"
       d="M 90.069832,144.92364 H 137.10927"
       id="path1333-9"
       inkscape:connector-curvature="0" />
    <g
       id="g1114"
       style="opacity:0.7;fill:none;stroke:#ffffff">
      <path
         inkscape:connector-curvature="0"
         id="path27-2"
         d="M 86.719661,152.00629 H 133.7777"
         style="fill:none;stroke:#ffffff;stroke-width:0.16500001;stroke-linecap:butt;stroke-linejoin:miter;stroke-miterlimit:4;stroke-dasharray:none;stroke-opacity:1" />
      <path
         inkscape:connector-curvature="0"
         id="path27-2-9"
         d="M 83.512424,154.81261 H 130.57046"
         style="fill:none;stroke:#ffffff;stroke-width:0.16500001;stroke-linecap:butt;stroke-linejoin:miter;stroke-miterlimit:4;stroke-dasharray:none;stroke-opacity:1" />
      <path
         inkscape:connector-curvature="0"
         id="path27-2-8"
         d="M 80.171556,157.61894 H 127.2296"
         style="fill:none;stroke:#ffffff;stroke-width:0.16500001;stroke-linecap:butt;stroke-linejoin:miter;stroke-miterlimit:4;stroke-dasharray:none;stroke-opacity:1" />
      <path
         inkscape:connector-curvature="0"
         id="path27-2-5"
         d="M 76.697053,160.42528 H 123.75509"
         style="fill:none;stroke:#ffffff;stroke-width:0.16500001;stroke-linecap:butt;stroke-linejoin:miter;stroke-miterlimit:4;stroke-dasharray:none;stroke-opacity:1" />
      <path
         inkscape:connector-curvature="0"
         id="path27-2-4"
         d="M 73.356183,163.36524 H 120.41423"
         style="fill:none;stroke:#ffffff;stroke-width:0.16500001;stroke-linecap:butt;stroke-linejoin:miter;stroke-miterlimit:4;stroke-dasharray:none;stroke-opacity:1" />
      <path
         inkscape:connector-curvature="0"
         id="path27-2-82"
         d="M 70.015314,166.03794 H 117.07336"
         style="fill:none;stroke:#ffffff;stroke-width:0.16500001;stroke-linecap:butt;stroke-linejoin:miter;stroke-miterlimit:4;stroke-dasharray:none;stroke-opacity:1" />
      <path
         inkscape:connector-curvature="0"
         id="path27-2-46"
         d="M 66.407176,168.84426 H 113.46521"
         style="fill:none;stroke:#ffffff;stroke-width:0.16500001;stroke-linecap:butt;stroke-linejoin:miter;stroke-miterlimit:4;stroke-dasharray:none;stroke-opacity:1" />
    </g>
    <path
       style="fill:none;stroke:#ffffff;stroke-width:0.26458332px;stroke-linecap:butt;stroke-linejoin:miter;stroke-opacity:1"
       d="m 94.534638,149.55593 -23.362169,19.06599 v 0"
       id="path1127-9-4"
       inkscape:connector-curvature="0" />
    <path
       style="fill:none;stroke:#ffffff;stroke-width:0.26458332px;stroke-linecap:butt;stroke-linejoin:miter;stroke-opacity:1"
       d="m 99.479124,149.8232 -23.362168,19.06599 v 0"
       id="path1127-9-0"
       inkscape:connector-curvature="0" />
    <path
       style="fill:none;stroke:#ffffff;stroke-width:0.26458332px;stroke-linecap:butt;stroke-linejoin:miter;stroke-opacity:1"
       d="m 104.82451,149.68956 -23.362163,19.06599 v 0"
       id="path1127-9-78"
       inkscape:connector-curvature="0" />
    <path
       style="fill:none;stroke:#ffffff;stroke-width:0.26458332px;stroke-linecap:butt;stroke-linejoin:miter;stroke-opacity:1"
       d="m 110.03627,149.55593 -23.362168,19.06599 v 0"
       id="path1127-9-71"
       inkscape:connector-curvature="0" />
    <path
       style="fill:none;stroke:#ffffff;stroke-width:0.26458332px;stroke-linecap:butt;stroke-linejoin:miter;stroke-opacity:1"
       d="m 115.1144,149.82319 -23.362177,19.06599 v 0"
       id="path1127-9-5"
       inkscape:connector-curvature="0" />
    <path
       style="fill:none;stroke:#ffffff;stroke-width:0.26458332px;stroke-linecap:butt;stroke-linejoin:miter;stroke-opacity:1"
       d="m 120.32614,149.95683 -23.362161,19.06599 v 0"
       id="path1127-9-41"
       inkscape:connector-curvature="0" />
    <path
       style="fill:none;stroke:#ffffff;stroke-width:0.26458332px;stroke-linecap:butt;stroke-linejoin:miter;stroke-opacity:1"
       d="m 125.67154,149.82319 -23.36217,19.06599 v 0"
       id="path1127-9-56"
       inkscape:connector-curvature="0" />
    <path
       style="fill:none;stroke:#ffffff;stroke-width:0.26458332px;stroke-linecap:butt;stroke-linejoin:miter;stroke-opacity:1"
       d="m 130.74966,149.68957 -23.36217,19.06599 v 0"
       id="path1127-9-77"
       inkscape:connector-curvature="0" />
    <path
       style="fill:none;stroke:#ffffff;stroke-width:0.26458332px;stroke-linecap:butt;stroke-linejoin:miter;stroke-opacity:1"
       d="m 135.82778,149.68956 -23.36217,19.06599 v 0"
       id="path1127-9-06"
       inkscape:connector-curvature="0" />
    <path
       style="fill:none;stroke:#ffffff;stroke-width:0.26458332px;stroke-linecap:butt;stroke-linejoin:miter;stroke-opacity:1"
       d="M 89.991056,144.87871 66.628888,163.9447 v 0"
       id="path1127-9"
       inkscape:connector-curvature="0" />
    <path
       style="fill:none;stroke:#ffffff;stroke-width:0.26458332px;stroke-linecap:butt;stroke-linejoin:miter;stroke-opacity:1"
       d="m 89.723787,139.93423 -23.362169,19.06599 v 0"
       id="path1127-9-8"
       inkscape:connector-curvature="0" />
    <path
       style="fill:none;stroke:#ffffff;stroke-width:0.26458332px;stroke-linecap:butt;stroke-linejoin:miter;stroke-opacity:1"
       d="m 89.590151,129.64435 -23.362168,19.06599 v 0"
       id="path1127-9-7"
       inkscape:connector-curvature="0" />
    <path
       style="fill:none;stroke:#ffffff;stroke-width:0.26458332px;stroke-linecap:butt;stroke-linejoin:miter;stroke-opacity:1"
       d="m 89.723786,134.72247 -23.362169,19.06599 v 0"
       id="path1127-9-1"
       inkscape:connector-curvature="0" />
    <path
       style="fill:none;stroke:#ffffff;stroke-width:0.26458332px;stroke-linecap:butt;stroke-linejoin:miter;stroke-opacity:1"
       d="m 89.723786,124.69987 -23.362168,19.06599 v 0"
       id="path1127-9-9"
       inkscape:connector-curvature="0" />
    <path
       style="fill:none;stroke:#ffffff;stroke-width:0.26458332px;stroke-linecap:butt;stroke-linejoin:miter;stroke-opacity:1"
       d="m 89.723786,119.35447 -23.362168,19.06599 v 0"
       id="path1127-9-3"
       inkscape:connector-curvature="0" />
    <path
       style="fill:none;stroke:#ffffff;stroke-width:0.26458332px;stroke-linecap:butt;stroke-linejoin:miter;stroke-opacity:1"
       d="m 89.590151,114.81089 -23.362168,19.06599 v 0"
       id="path1127-9-32"
       inkscape:connector-curvature="0" />
    <path
       style="fill:none;stroke:#ffffff;stroke-width:0.26458332px;stroke-linecap:butt;stroke-linejoin:miter;stroke-opacity:1"
       d="m 89.456517,109.19823 -23.362169,19.06599 v 0"
       id="path1127-9-6"
       inkscape:connector-curvature="0" />
    <path
       style="fill:none;stroke:#ffffff;stroke-width:0.26458332px;stroke-linecap:butt;stroke-linejoin:miter;stroke-opacity:1"
       d="m 89.723786,103.98648 -23.362168,19.06599 v 0"
       id="path1127-9-15"
       inkscape:connector-curvature="0" />
    <path
       style="fill:none;stroke:#ffffff;stroke-width:0.26458332px;stroke-linecap:butt;stroke-linejoin:miter;stroke-opacity:1"
       d="M 66.416477,121.67119 V 168.9779"
       id="path1268"
       inkscape:connector-curvature="0" />
    <path
       style="fill:none;stroke:#ffffff;stroke-width:0.26458332px;stroke-linecap:butt;stroke-linejoin:miter;stroke-opacity:1"
       d="m 70.232325,118.69845 v 47.30671"
       id="path1268-2"
       inkscape:connector-curvature="0" />
    <path
       style="fill:none;stroke:#ffffff;stroke-width:0.26458332px;stroke-linecap:butt;stroke-linejoin:miter;stroke-opacity:1"
       d="m 73.632755,115.79126 v 47.30671"
       id="path1268-0"
       inkscape:connector-curvature="0" />
    <path
       style="fill:none;stroke:#ffffff;stroke-width:0.26458332px;stroke-linecap:butt;stroke-linejoin:miter;stroke-opacity:1"
       d="m 76.839989,113.11856 v 47.30671"
       id="path1268-25"
       inkscape:connector-curvature="0" />
    <path
       style="fill:none;stroke:#ffffff;stroke-width:0.26458332px;stroke-linecap:butt;stroke-linejoin:miter;stroke-opacity:1"
       d="m 80.314493,110.44587 v 47.30671"
       id="path1268-7"
       inkscape:connector-curvature="0" />
    <path
       style="fill:none;stroke:#ffffff;stroke-width:0.26458332px;stroke-linecap:butt;stroke-linejoin:miter;stroke-opacity:1"
       d="m 83.388092,107.5059 v 47.30672"
       id="path1268-78"
       inkscape:connector-curvature="0" />
    <path
       style="fill:none;stroke:#ffffff;stroke-width:0.26458332px;stroke-linecap:butt;stroke-linejoin:miter;stroke-opacity:1"
       d="m 86.728961,104.56594 v 47.30671"
       id="path1268-71"
       inkscape:connector-curvature="0" />
    <g
       aria-label="x"
       style="font-style:normal;font-weight:normal;font-size:7.5012517px;line-height:1.25;font-family:sans-serif;letter-spacing:0px;word-spacing:0px;fill:none;fill-opacity:1;stroke:#ffffff;stroke-width:0.18753128"
       id="text31"
       transform="translate(3.96875,1.5119048)">
      <path
         d="m 59.330383,167.8685 q 0.179473,0.19046 0.271041,0.38092 0.06593,0.13186 0.216101,0.69225 l 0.322319,-0.48348 q 0.128195,-0.17581 0.311331,-0.3333 0.183136,-0.16116 0.32232,-0.21977 0.08791,-0.0366 0.194124,-0.0366 0.157497,0 0.249065,0.0842 0.09523,0.0842 0.09523,0.20511 0,0.13918 -0.05494,0.19046 -0.102556,0.0916 -0.234414,0.0916 -0.07692,0 -0.164823,-0.033 -0.172148,-0.0586 -0.230751,-0.0586 -0.0879,0 -0.208775,0.10256 -0.227089,0.19046 -0.542083,0.73621 l 0.300343,1.25997 q 0.06959,0.28936 0.117207,0.34796 0.04762,0.0549 0.09523,0.0549 0.07692,0 0.179473,-0.0842 0.20145,-0.16849 0.344296,-0.43953 l 0.128195,0.0659 q -0.230751,0.4322 -0.586035,0.71789 -0.20145,0.16116 -0.340633,0.16116 -0.205112,0 -0.325982,-0.23075 -0.07692,-0.14284 -0.318657,-1.23067 -0.571384,0.9926 -0.91568,1.27829 -0.223426,0.18313 -0.432201,0.18313 -0.146509,0 -0.267379,-0.10622 -0.0879,-0.0806 -0.0879,-0.2161 0,-0.12087 0.08058,-0.20145 0.08058,-0.0806 0.197787,-0.0806 0.117207,0 0.249065,0.11721 0.09523,0.0842 0.146509,0.0842 0.04395,0 0.113544,-0.0586 0.172148,-0.13918 0.468828,-0.60069 0.296681,-0.4615 0.388249,-0.66661 -0.227089,-0.89004 -0.245403,-0.94132 -0.08424,-0.23808 -0.219763,-0.33697 -0.13552,-0.0989 -0.399236,-0.0989 -0.08424,0 -0.194125,0.007 v -0.13186 z"
         style="font-style:italic;font-variant:normal;font-weight:normal;font-stretch:normal;font-family:'Times New Roman';-inkscape-font-specification:'Times New Roman, Italic';fill:none;stroke:#ffffff;stroke-width:0.18753128"
         id="path1535"
         inkscape:connector-curvature="0" />
    </g>
    <g
       aria-label="z"
       style="font-style:normal;font-weight:normal;font-size:7.5012517px;line-height:1.25;font-family:sans-serif;letter-spacing:0px;word-spacing:0px;fill:none;fill-opacity:1;stroke:#ffffff;stroke-width:0.18753128"
       id="text31-2">
      <path
         d="m 89.228491,98.62408 h 2.325828 v 0.09157 l -2.534603,2.63716 h 1.073177 q 0.380923,0 0.483479,-0.0293 0.102556,-0.0293 0.186799,-0.12454 0.08791,-0.0952 0.194124,-0.34429 h 0.135521 l -0.318657,0.99626 h -2.384431 v -0.10622 l 2.534603,-2.637159 h -1.054864 q -0.333307,0 -0.402899,0.01831 -0.102556,0.02198 -0.205112,0.117207 -0.09889,0.09157 -0.205113,0.307668 H 88.91716 Z"
         style="font-style:italic;font-variant:normal;font-weight:normal;font-stretch:normal;font-family:'Times New Roman';-inkscape-font-specification:'Times New Roman, Italic';fill:none;stroke:#ffffff;stroke-width:0.18753128"
         id="path1532"
         inkscape:connector-curvature="0" />
    </g>
    <g
       aria-label="y"
       style="font-style:normal;font-weight:normal;font-size:7.5012517px;line-height:1.25;font-family:sans-serif;letter-spacing:0px;word-spacing:0px;fill:none;fill-opacity:1;stroke:#ffffff;stroke-width:0.18753128"
       id="text31-1">
      <path
         d="m 139.07892,146.99549 q 0.12453,0.21244 0.17215,0.39924 0.0476,0.18314 0.0952,0.72522 l 0.16116,1.80206 q 0.21976,-0.26372 0.63731,-0.8351 0.20145,-0.27837 0.49813,-0.75818 0.17947,-0.29302 0.21976,-0.41023 0.022,-0.0586 0.022,-0.12087 0,-0.0403 -0.0256,-0.0659 -0.0256,-0.0256 -0.13552,-0.0586 -0.10622,-0.0366 -0.17947,-0.1282 -0.0696,-0.0952 -0.0696,-0.2161 0,-0.15017 0.0879,-0.24174 0.0879,-0.0916 0.21977,-0.0916 0.16115,0 0.2747,0.13553 0.11354,0.13185 0.11354,0.36627 0,0.28935 -0.19778,0.66295 -0.19779,0.36993 -0.76185,1.13911 -0.56406,0.76917 -1.36619,1.67752 -0.55307,0.62633 -0.82045,0.78749 -0.26738,0.16482 -0.45784,0.16482 -0.11355,0 -0.19779,-0.0879 -0.0879,-0.0842 -0.0879,-0.19778 0,-0.14285 0.12087,-0.26006 0.11721,-0.1172 0.25639,-0.1172 0.0733,0 0.12087,0.033 0.0293,0.0183 0.0659,0.10256 0.033,0.0879 0.0623,0.1172 0.0183,0.0183 0.0439,0.0183 0.022,0 0.0769,-0.0366 0.20145,-0.12453 0.46883,-0.39557 0.35162,-0.35895 0.5201,-0.58604 l -0.20511,-2.32216 q -0.0513,-0.57505 -0.15383,-0.69958 -0.10256,-0.12453 -0.3443,-0.12453 -0.0769,0 -0.2747,0.022 l -0.033,-0.13552 z"
         style="font-style:italic;font-variant:normal;font-weight:normal;font-stretch:normal;font-family:'Times New Roman';-inkscape-font-specification:'Times New Roman, Italic';fill:none;stroke:#ffffff;stroke-width:0.18753128"
         id="path1529"
         inkscape:connector-curvature="0" />
    </g>
    <g
       aria-label="(r,θ,φ)"
       style="font-style:normal;font-weight:normal;font-size:6.83547068px;line-height:1.25;font-family:sans-serif;letter-spacing:0px;word-spacing:0px;fill:none;fill-opacity:1;stroke:#ffffff;stroke-width:0.17088677"
       id="text31-19">
      <path
         d="m 113.58932,111.85855 -0.11347,0.0534 q -0.39718,-0.75765 -0.57074,-1.33839 -0.1335,-0.45392 -0.1335,-0.91452 0,-1.07471 0.4973,-1.92581 0.61079,-1.04134 1.97922,-2.02928 l 0.0801,0.11682 q -0.61746,0.45725 -1.00796,1.02465 -0.4873,0.70758 -0.7977,1.70887 -0.3104,1.00129 -0.3104,1.82235 0,0.62747 0.37715,1.4819 z"
         style="font-style:italic;font-variant:normal;font-weight:normal;font-stretch:normal;font-family:'Times New Roman';-inkscape-font-specification:'Times New Roman, Italic';fill:none;stroke:#ffffff;stroke-width:0.17088677"
         id="path1538"
         inkscape:connector-curvature="0" />
      <path
         d="m 114.9444,107.61642 1.15149,-0.1869 -0.48062,1.62209 q 0.58408,-0.99796 1.06136,-1.39513 0.27035,-0.22696 0.44057,-0.22696 0.11014,0 0.17356,0.0667 0.0634,0.0634 0.0634,0.18691 0,0.22028 -0.11348,0.42054 -0.0801,0.15019 -0.23029,0.15019 -0.0768,0 -0.13351,-0.0501 -0.0534,-0.0501 -0.0667,-0.15353 -0.007,-0.0634 -0.03,-0.0834 -0.0267,-0.0267 -0.0634,-0.0267 -0.0567,0 -0.10681,0.0267 -0.0868,0.0467 -0.26367,0.26034 -0.27702,0.32709 -0.60077,0.84776 -0.14019,0.22028 -0.24031,0.49731 -0.14018,0.38049 -0.16021,0.45725 l -0.1068,0.42054 h -0.51066 l 0.61746,-2.07267 q 0.1068,-0.36046 0.1068,-0.51399 0,-0.0601 -0.0501,-0.10013 -0.0668,-0.0534 -0.1769,-0.0534 -0.0701,0 -0.25699,0.03 z"
         style="font-style:italic;font-variant:normal;font-weight:normal;font-stretch:normal;font-family:'Times New Roman';-inkscape-font-specification:'Times New Roman, Italic';fill:none;stroke:#ffffff;stroke-width:0.17088677"
         id="path1540"
         inkscape:connector-curvature="0" />
      <path
         d="m 116.41296,111.20104 q 0.25032,-0.11348 0.40719,-0.28704 0.12016,-0.1335 0.12016,-0.25699 0,-0.0601 -0.02,-0.11015 -0.0134,-0.0267 -0.0935,-0.1068 -0.0801,-0.0801 -0.0901,-0.11014 -0.0234,-0.0567 -0.0234,-0.13017 0,-0.14352 0.0968,-0.24698 0.10013,-0.10347 0.23363,-0.10347 0.13685,0 0.24031,0.11014 0.10681,0.11014 0.10681,0.27702 0,0.29705 -0.23364,0.60078 -0.23363,0.30372 -0.67754,0.4706 z"
         style="font-style:italic;font-variant:normal;font-weight:normal;font-stretch:normal;font-family:'Times New Roman';-inkscape-font-specification:'Times New Roman, Italic';fill:none;stroke:#ffffff;stroke-width:0.17088677"
         id="path1542"
         inkscape:connector-curvature="0" />
      <path
         d="m 120.73186,105.70396 q 0.92786,0 0.92786,1.27164 0,0.76765 -0.37715,1.70219 -0.37382,0.9312 -0.85777,1.39179 -0.48062,0.4606 -0.99128,0.4606 -0.41721,0 -0.68088,-0.35379 -0.26033,-0.35713 -0.26033,-0.88781 0,-0.34044 0.15019,-0.94122 0.15019,-0.60077 0.45058,-1.21156 0.30039,-0.61412 0.75097,-1.02131 0.45392,-0.41053 0.88781,-0.41053 z m 0.20693,2.26959 q 0.22362,-0.70424 0.22362,-1.36843 0,-0.76098 -0.43055,-0.76098 -0.37715,0 -0.74096,0.57074 -0.3638,0.56739 -0.66752,1.55867 z m -1.67883,0.19025 q -0.30706,0.9579 -0.30706,1.46855 0,0.33377 0.13684,0.54738 0.13685,0.21027 0.40719,0.21027 0.22363,0 0.42055,-0.1769 0.19692,-0.18023 0.46059,-0.7276 0.26367,-0.54737 0.49731,-1.3217 z"
         style="font-style:italic;font-variant:normal;font-weight:normal;font-stretch:normal;font-family:'Times New Roman';-inkscape-font-specification:'Times New Roman, Italic';fill:none;stroke:#ffffff;stroke-width:0.17088677"
         id="path1544"
         inkscape:connector-curvature="0" />
      <path
         d="m 121.48616,111.20104 q 0.25032,-0.11348 0.40719,-0.28704 0.12016,-0.1335 0.12016,-0.25699 0,-0.0601 -0.02,-0.11015 -0.0134,-0.0267 -0.0935,-0.1068 -0.0801,-0.0801 -0.0901,-0.11014 -0.0234,-0.0567 -0.0234,-0.13017 0,-0.14352 0.0968,-0.24698 0.10013,-0.10347 0.23363,-0.10347 0.13685,0 0.24031,0.11014 0.10681,0.11014 0.10681,0.27702 0,0.29705 -0.23364,0.60078 -0.23363,0.30372 -0.67754,0.4706 z"
         style="font-style:italic;font-variant:normal;font-weight:normal;font-stretch:normal;font-family:'Times New Roman';-inkscape-font-specification:'Times New Roman, Italic';fill:none;stroke:#ffffff;stroke-width:0.17088677"
         id="path1546"
         inkscape:connector-curvature="0" />
      <path
         d="m 124.46333,111.91196 h -0.34044 l 0.40386,-1.38178 q -0.48396,-0.003 -0.75097,-0.29038 -0.26367,-0.29037 -0.26367,-0.79435 0,-0.76766 0.47728,-1.38178 0.47728,-0.61413 1.19153,-0.63415 l -0.0367,0.12015 q -0.44725,0.0734 -0.78101,0.73094 -0.33042,0.65752 -0.33042,1.28833 0,0.76098 0.54069,0.78434 l 0.45058,-1.49192 q 0.17022,-0.57741 0.30706,-0.85777 0.13685,-0.2837 0.33711,-0.42722 0.20025,-0.14685 0.42721,-0.14685 0.32042,0 0.49731,0.27368 0.17689,0.27035 0.17689,0.71759 0,0.80771 -0.50064,1.4452 -0.49731,0.63415 -1.41516,0.66752 z m 0.45058,-1.56202 q 0.66753,-0.0434 1.03133,-0.69089 0.3638,-0.65083 0.3638,-1.32837 0,-0.57741 -0.29371,-0.57741 -0.1769,0 -0.31708,0.2136 -0.14018,0.21361 -0.3638,0.97126 z"
         style="font-style:italic;font-variant:normal;font-weight:normal;font-stretch:normal;font-family:'Times New Roman';-inkscape-font-specification:'Times New Roman, Italic';fill:none;stroke:#ffffff;stroke-width:0.17088677"
         id="path1548"
         inkscape:connector-curvature="0" />
      <path
         d="m 128.03793,105.76738 0.11348,-0.0634 q 0.39718,0.75431 0.5674,1.33505 0.13684,0.45392 0.13684,0.91451 0,1.07806 -0.4973,1.92582 -0.61413,1.04468 -1.97922,2.03262 l -0.0801,-0.10347 q 0.61746,-0.46059 1.00796,-1.02465 0.4873,-0.70758 0.7977,-1.70887 0.3104,-1.00463 0.3104,-1.82569 0,-0.62747 -0.37716,-1.4819 z"
         style="font-style:italic;font-variant:normal;font-weight:normal;font-stretch:normal;font-family:'Times New Roman';-inkscape-font-specification:'Times New Roman, Italic';fill:none;stroke:#ffffff;stroke-width:0.17088677"
         id="path1550"
         inkscape:connector-curvature="0" />
    </g>
    <g
       aria-label="r"
       style="font-style:normal;font-weight:normal;font-size:7.50125217px;line-height:1.25;font-family:sans-serif;letter-spacing:0px;word-spacing:0px;fill:none;fill-opacity:1;stroke:#ffffff;stroke-width:0.18753128"
       id="text31-2-1">
      <path
         d="m 98.615124,123.5246 1.263639,-0.20512 -0.527432,1.78009 q 0.640976,-1.09516 1.164749,-1.53102 0.29668,-0.24907 0.48348,-0.24907 0.12087,0 0.19046,0.0733 0.0696,0.0696 0.0696,0.20511 0,0.24174 -0.12453,0.4615 -0.0879,0.16483 -0.25273,0.16483 -0.0842,0 -0.14651,-0.0549 -0.0586,-0.055 -0.0733,-0.16849 -0.007,-0.0696 -0.033,-0.0916 -0.0293,-0.0293 -0.0696,-0.0293 -0.0623,0 -0.11721,0.0293 -0.0952,0.0513 -0.28935,0.28569 -0.304009,0.35895 -0.659293,0.93034 -0.153834,0.24174 -0.263716,0.54574 -0.153834,0.41755 -0.17581,0.50179 l -0.117207,0.46151 h -0.560397 l 0.677604,-2.27455 q 0.117207,-0.39558 0.117207,-0.56406 0,-0.0659 -0.05494,-0.10988 -0.07325,-0.0586 -0.194124,-0.0586 -0.07692,0 -0.28203,0.033 z"
         style="font-style:italic;font-variant:normal;font-weight:normal;font-stretch:normal;font-family:'Times New Roman';-inkscape-font-specification:'Times New Roman, Italic';fill:none;stroke:#ffffff;stroke-width:0.18753128"
         id="path1553"
         inkscape:connector-curvature="0" />
    </g>
    <g
       aria-label="θ"
       style="font-style:normal;font-weight:normal;font-size:6.16291332px;line-height:1.25;font-family:sans-serif;letter-spacing:0px;word-spacing:0px;fill:none;fill-opacity:1;stroke:#ffffff;stroke-width:0.15407281"
       id="text31-2-8">
      <path
         d="m 93.390499,132.00921 q 0.836568,0 0.836568,1.14652 0,0.69213 -0.340044,1.53471 -0.337034,0.83958 -0.773373,1.25485 -0.43333,0.41528 -0.893743,0.41528 -0.376154,0 -0.613884,-0.31898 -0.23472,-0.32199 -0.23472,-0.80046 0,-0.30694 0.135415,-0.8486 0.135416,-0.54167 0.406247,-1.09236 0.270831,-0.55369 0.677078,-0.92082 0.409256,-0.37014 0.800456,-0.37014 z m 0.186573,2.04628 q 0.201619,-0.63495 0.201619,-1.23378 0,-0.68611 -0.388192,-0.68611 -0.340043,0 -0.66805,0.51458 -0.328006,0.51157 -0.601847,1.40531 z m -1.513645,0.17153 q -0.27685,0.86365 -0.27685,1.32406 0,0.30093 0.123379,0.49352 0.123378,0.18958 0.367126,0.18958 0.201619,0 0.379164,-0.15949 0.177545,-0.1625 0.415274,-0.65601 0.23773,-0.49352 0.448376,-1.19166 z"
         style="font-style:italic;font-variant:normal;font-weight:normal;font-stretch:normal;font-family:'Times New Roman';-inkscape-font-specification:'Times New Roman, Italic';fill:none;stroke:#ffffff;stroke-width:0.15407281"
         id="path1565" />
    </g>
    <text
       xml:space="preserve"
       style="font-style:normal;font-weight:normal;font-size:10.58333302px;line-height:1.25;font-family:sans-serif;letter-spacing:0px;word-spacing:0px;fill:#000000;fill-opacity:1;stroke:none;stroke-width:0.26458332"
       x="20.599701"
       y="115.76041"
       id="text97"><tspan
         sodipodi:role="line"
         id="tspan95"
         x="20.599701"
         y="125.12418"
         style="stroke-width:0.26458332" /></text>
    <g
       aria-label="φ"
       style="font-style:normal;font-weight:normal;font-size:7.50125265px;line-height:1.25;font-family:sans-serif;letter-spacing:0px;word-spacing:0px;fill:none;fill-opacity:1;stroke:#ffffff;stroke-width:0.18753128"
       id="text31-2-8-2">
      <path
         d="M 88.449698,159.42344 H 88.0761 l 0.443189,-1.51637 q -0.531094,-0.004 -0.824112,-0.31865 -0.289355,-0.31866 -0.289355,-0.87173 0,-0.84243 0.523769,-1.51637 0.523769,-0.67394 1.307592,-0.69591 l -0.04029,0.13185 q -0.490805,0.0806 -0.857077,0.80214 -0.362609,0.72156 -0.362609,1.41381 0,0.8351 0.593361,0.86074 l 0.494467,-1.63724 q 0.186799,-0.63365 0.33697,-0.94132 0.150172,-0.31133 0.369935,-0.46882 0.219763,-0.16116 0.468828,-0.16116 0.351622,0 0.545746,0.30034 0.194124,0.29668 0.194124,0.78748 0,0.88638 -0.549408,1.58596 -0.545746,0.69592 -1.552994,0.73255 z m 0.494467,-1.71415 q 0.732544,-0.0476 1.131781,-0.75819 0.399236,-0.71423 0.399236,-1.45776 0,-0.63365 -0.322319,-0.63365 -0.194124,0 -0.347958,0.23441 -0.153835,0.23442 -0.399237,1.06586 z"
         style="font-style:italic;font-variant:normal;font-weight:normal;font-stretch:normal;font-family:'Times New Roman';-inkscape-font-specification:'Times New Roman, Italic';fill:none;stroke:#ffffff;stroke-width:0.18753128"
         id="path1556"
         inkscape:connector-curvature="0" />
    </g>
    <g
       id="g1563"
       transform="translate(-3.4017857,-8.3154762)"
       style="stroke:#ffffff;fill:none">
      <circle
         r="0.59731448"
         cy="117.81636"
         cx="114.71577"
         id="path67"
         style="opacity:1;fill:none;fill-opacity:1;fill-rule:evenodd;stroke:#ffffff;stroke-width:0.704;stroke-linecap:round;stroke-linejoin:round;stroke-miterlimit:4;stroke-dasharray:none;stroke-dashoffset:0;stroke-opacity:0.81081082;paint-order:stroke markers fill" />
      <path
         inkscape:connector-curvature="0"
         id="path117"
         d="m 93.115776,157.96011 21.355654,16.81994 v -56.50744 z"
         style="fill:none;stroke:#ffffff;stroke-width:0.36500001;stroke-linecap:butt;stroke-linejoin:miter;stroke-miterlimit:4;stroke-dasharray:2.19000001, 0.73000001000000003;stroke-dashoffset:0;stroke-opacity:1" />
    </g>
    <path
       style="fill:none;stroke:#ffffff;stroke-width:0.26458332px;stroke-linecap:butt;stroke-linejoin:miter;stroke-opacity:1"
       d="m 89.869377,136.43783 c 1.996978,1.93242 3.258386,3.96992 4.009043,6.08038"
       id="path989"
       inkscape:connector-curvature="0"
       sodipodi:nodetypes="cc" />
    <path
       style="fill:none;stroke:#ffffff;stroke-width:0.26458332px;stroke-linecap:butt;stroke-linejoin:miter;stroke-opacity:1"
       d="m 93.611151,152.80809 c -2.641325,0.56497 -5.196362,0.78479 -7.483546,-0.0668"
       id="path991"
       inkscape:connector-curvature="0"
       sodipodi:nodetypes="cc" />
    <path
       style="fill:none;stroke:#ffffff;stroke-width:0.26458332px;stroke-linecap:butt;stroke-linejoin:miter;stroke-opacity:1"
       d="M 89.769343,149.77827 H 136.82738"
       id="path27"
       inkscape:connector-curvature="0" />
    <path
       style="fill:none;stroke:#ffffff;stroke-width:0.26458332px;stroke-linecap:butt;stroke-linejoin:miter;stroke-opacity:1"
       d="m 89.769343,149.77827 -23.362168,19.06599 v 0"
       id="path1127"
       inkscape:connector-curvature="0" />
    <path
       style="fill:none;stroke:#ffffff;stroke-width:0.26458332px;stroke-linecap:butt;stroke-linejoin:miter;stroke-opacity:1"
       d="M 89.769343,149.77827 V 103.22959 H 89.401657"
       id="path1144"
       inkscape:connector-curvature="0" />
  </g>
</svg>
