<svg width="21mm" height="21mm" version="1.1" viewBox="0 0 21 21" xmlns="http://www.w3.org/2000/svg">
	<g transform="translate(-132 -153)">
		<text x="83.994789" y="183.11511" fill="#000000" font-family="sans-serif" font-size="10.6px" letter-spacing="0px" stroke-width=".265" word-spacing="0px" style="line-height:1.25" xml:space="preserve"><tspan x="83.994789" y="192.47888" stroke-width=".265"/></text>
		<text x="135.07794" y="165.59529" fill="#000000" font-family="sans-serif" font-size="5.23px" letter-spacing="0px" stroke-width=".131" word-spacing="0px" style="line-height:1.25" xml:space="preserve"><tspan x="135.07794" y="165.59529" fill="#000000" font-family="Amatic" stroke-width=".131">Matt Lorber</tspan></text>
		<text x="139.31059" y="170.10532" fill="#000000" font-family="sans-serif" font-size="5.23px" letter-spacing="0px" stroke-width=".131" word-spacing="0px" style="line-height:1.25" xml:space="preserve"><tspan x="139.31059" y="170.10532" fill="#000000" font-family="Amatic" stroke-width=".131">2020</tspan></text>
		<path d="m141 161-0.326-0.218-0.365 0.145 0.106-0.378-0.251-0.302 0.392-0.0155 0.21-0.332 0.136 0.368 0.38 0.0967-0.308 0.243z" fill-rule="evenodd" style="paint-order:stroke markers fill"/>
		<path d="m145 159-0.347-0.396-0.523 0.0617 0.269-0.453-0.22-0.478 0.514 0.116 0.387-0.357 0.0483 0.524 0.459 0.257-0.484 0.208z" fill-rule="evenodd" style="paint-order:stroke markers fill"/>
		<path d="m148 162-0.243-0.492-0.543-0.0789 0.393-0.383-0.0928-0.541 0.486 0.255 0.486-0.255-0.0928 0.541 0.393 0.383-0.543 0.0789z" fill-rule="evenodd" style="paint-order:stroke markers fill"/>
		<path d="m142 164-0.677-0.229-0.573 0.427 9e-3 -0.714-0.583-0.412 0.682-0.212 0.212-0.682 0.412 0.583 0.714-9e-3 -0.427 0.573z" fill-rule="evenodd" style="paint-order:stroke markers fill"/>
		<path d="m144 168-0.663-0.0432-0.411 0.522-0.164-0.644-0.623-0.23 0.562-0.355 0.0263-0.664 0.511 0.425 0.639-0.18-0.246 0.617z" fill-rule="evenodd" style="paint-order:stroke markers fill"/>
		<path d="m139 166-0.775-0.0506-0.481 0.61-0.191-0.753-0.729-0.269 0.657-0.415 0.0307-0.776 0.597 0.497 0.748-0.211-0.288 0.722z" fill-rule="evenodd" style="paint-order:stroke markers fill"/>
		<path d="m144 163-0.692-0.462-0.773 0.308 0.226-0.801-0.532-0.64 0.832-0.0329 0.444-0.704 0.288 0.781 0.807 0.205-0.653 0.515z" fill-rule="evenodd" style="paint-order:stroke markers fill"/>
		<path d="m147 166-0.7-0.237-0.592 0.442 9e-3 -0.739-0.603-0.427 0.706-0.219 0.219-0.706 0.427 0.603 0.739-9e-3 -0.442 0.592z" fill-rule="evenodd" style="paint-order:stroke markers fill"/>
		<circle cx="140" cy="164" r=".413" fill-rule="evenodd" style="paint-order:stroke markers fill"/>
		<circle cx="144" cy="165" r=".565" fill-rule="evenodd" style="paint-order:stroke markers fill"/>
		<circle cx="146" cy="163" r=".739" fill-rule="evenodd" style="paint-order:stroke markers fill"/>
		<circle cx="141" cy="166" r=".413" fill-rule="evenodd" style="paint-order:stroke markers fill"/>
		<circle cx="141" cy="162" r=".413" fill-rule="evenodd" style="paint-order:stroke markers fill"/>
		<circle cx="146" cy="168" r=".413" fill-rule="evenodd" style="paint-order:stroke markers fill"/>
		<path d="m142 159-0.537 0.144-0.393-0.393 0.144-0.537 0.537-0.144 0.393 0.393z" fill-rule="evenodd" style="paint-order:stroke markers fill"/>
		<path d="m148 166h-0.507l-0.253-0.439 0.253-0.439h0.507l0.253 0.439z" fill-rule="evenodd" style="paint-order:stroke markers fill"/>
		<path d="m138 163-0.772 0.207-0.565-0.565 0.207-0.772 0.772-0.207 0.565 0.565z" fill-rule="evenodd" style="paint-order:stroke markers fill"/>
		<path d="m140 168-0.446 0.12-0.327-0.327 0.12-0.446 0.446-0.12 0.327 0.327z" fill-rule="evenodd" style="paint-order:stroke markers fill"/>
		<path d="m142 169-0.452-0.121-0.121-0.452 0.331-0.331 0.452 0.121 0.121 0.452z" fill-rule="evenodd" style="paint-order:stroke markers fill"/>
		<path d="m139 161-0.922-0.532 0.922-0.532z" fill="#000080" fill-rule="evenodd" style="paint-order:stroke markers fill"/>
		<path d="m143 160-1.18-0.684 1.18-0.684z" fill="#000080" fill-rule="evenodd" style="paint-order:stroke markers fill"/>
		<path d="m145 162-0.443-0.767h0.886z" fill="#000080" fill-rule="evenodd" style="paint-order:stroke markers fill"/>
		<path d="m143 164-0.84-0.485 0.84-0.485z" fill="#000080" fill-rule="evenodd" style="paint-order:stroke markers fill"/>
		<path d="m142 166-1.01-0.271 0.74-0.74z" fill="#000080" fill-rule="evenodd" style="paint-order:stroke markers fill"/>
		<path d="m145 167-0.743-0.199 0.544-0.544z" fill="#000080" fill-rule="evenodd" style="paint-order:stroke markers fill"/>
	</g>
</svg>
