<svg width="23.1mm" height="31mm" version="1.1" viewBox="0 0 23.1 31" xmlns="http://www.w3.org/2000/svg">
	<g transform="translate(-67.2 -111)">
		<text x="58.532024" y="125.14569" fill="#000000" font-family="sans-serif" font-size="10.6px" letter-spacing="0px" stroke-width=".265" word-spacing="0px" style="line-height:1.25" xml:space="preserve"><tspan x="58.532024" y="134.50946" stroke-width=".265"/></text>
		<path transform="scale(.265)" d="m276 423c-0.319 0.0169-0.737 0.245-1.28 0.754 0.113 0.29 0.284 0.571 0.0859 0.912-1.33 8.51-3.13 17-4.69 25.4-0.552 2.33-1.23 7.34-1.81 7.46-1.45-8.12-3.3-16.2-5.05-24.2-1.32-2.27-0.832-10.4-4.42-8.86 0.208 8.7-0.3 17.4-8e-3 26.1 0.358 6.21-0.254 12.4-0.0957 18.6 1.83 4.28 2.53-1.04 1.98-3.03-0.314-10.8-0.38-21.5-0.186-32.3-0.153-6 1.28 1.79 1.79 3.96 1.45 7.93 3.93 15.7 4.37 23.8 0.27 5.53 4.2 0.447 3.14-2.28 2.57-7.97 3.97-16.3 5.07-24.6 0.225-4.36 0.443-1.02 0.514 1.55-0.192 9.26 0.158 18.5 0.344 27.8 0.325 2.74-0.686 6.36 0.402 8.47 3.38 0.532 1.45-6.65 1.61-9.12 0.222-10.9-0.98-21.8-1.01-32.8-0.204-1.66 0.956-7.76-0.768-7.66zm37.3 0.895c-2.65 0.0781-5.99 1.32-8.09 1.59-0.387 2.3 3.13 0.971 4.59 1.02 1.66 2.3 0.882 5.71 1.05 8.52-0.331 10.3 1.47 20.5 0.492 30.8-0.565 1.88 0.216 8.06 2.15 4.37 0.091-5.21-0.183-10.4-0.238-15.6l0.0469-0.893 0.137-0.908c-1.67-7.67-0.358-15.6-0.973-23.3-1.85-4.45 2.25-3.06 4.47-3.96-0.692-1.25-2.04-1.62-3.63-1.57zm16.6 0c-2.65 0.0781-5.99 1.32-8.09 1.59-0.387 2.3 3.13 0.971 4.6 1.02 1.66 2.3 0.882 5.71 1.05 8.52-0.331 10.3 1.47 20.5 0.49 30.8-0.565 1.88 0.218 8.06 2.15 4.37 0.091-5.21-0.183-10.4-0.238-15.6l0.0449-0.893 0.137-0.908c-1.67-7.67-0.358-15.6-0.973-23.3-1.85-4.45 2.25-3.06 4.47-3.96-0.692-1.25-2.04-1.62-3.63-1.57zm-35.1 0.828c-0.334 0.0133-0.732 0.164-1.21 0.482-3.23 8.94-3.98 18.5-5.9 27.8-1.48 5.55-1.51 11.5-3.75 16.8 3.07 2.61 2.67-3.38 3.3-5.23-0.646-6.03 5.11-4.81 8.94-3.41 1.62 1.1 0.487 3.6 0.824 5.34-0.0404 1.86-0.232 6.37 2.52 3.93-0.0187-5.85-0.47-11.7-0.656-17.6-0.803-1.44-0.506-3.14-0.48-4.7-0.714-4.84-0.933-9.86-1.43-14.8-0.567-2.18 0.18-8.76-2.16-8.67zm-0.541 4.16c1.47 8.69 2.44 17.5 2.65 26.3 1.97 5.89-5.06 3.77-8.29 2.99 6.5e-4 -0.428-9e-3 -0.857 0.0547-1.28 1.02-4.9 2.4-9.73 2.88-14.7 0.591-4.54 1.52-9.01 2.72-13.3zm-19.4 45.8c-1.69 0.0466-3.19 0.933-3.54 3.02-0.751 6.96-1.46 14.1 0.238 21-0.326 3.84 5.6 9.99 8.83 4.49 1.4-3.31 1.03-6.85 1.52-10.3-9e-3 -4.38-0.567-8.75-1.34-13.1 0.474-2.91-2.88-5.16-5.7-5.09zm13.9 0.248c-0.553 0.0448-1.07 0.346-1.5 0.99 4e-3 8.32-0.11 16.6-0.16 25 0.0861 1.3-0.681 5.38 1.48 3.27-0.212-4.98-0.033-9.97-0.0918-15 1.56-3.11 2.44 4.08 2.8 5.31 1.26 3.44 1.74 7.89 4.18 10.5 0.911-3.49-2.57-7.71-3.04-11.6-2.3-4.08-0.158-7.9 0.936-11.9 0.832-2.25-2.2-6.86-4.6-6.67zm39.5 0c-0.553 0.0448-1.07 0.346-1.5 0.99 4e-3 8.32-0.11 16.6-0.16 25 0.0861 1.3-0.681 5.38 1.48 3.27-0.212-4.98-0.033-9.97-0.0918-15 1.56-3.11 2.44 4.08 2.8 5.31 1.26 3.44 1.74 7.89 4.18 10.5 0.911-3.49-2.57-7.71-3.04-11.6-2.3-4.08-0.158-7.9 0.936-11.9 0.832-2.25-2.2-6.86-4.6-6.67zm-68.8 0.0508c0.265 9.1 0.515 18.2 0.941 27.3-1.04 2.61 0.923 2.92 3.58 2.41l0.951-0.0762 0.721 0.152c2.44-2.98-5.64 0.524-3.71-2.86-0.622-6.21-0.403-12.3-0.879-18.5-0.839-2.31 1.56-8.61-1.6-8.41zm58.3 0.139c-1.3 8e-3 -2.71 0.178-3.12 1.34 0.927 3.62 0.488 7.29 0.424 11 0.0417 4.76 0.361 9.53 0.0645 14.3-1.01 2.81 1.27 3.74 4.56 3.18 5.19-0.942-0.483-1.9-2.66-1.36-0.491-3.09-0.17-6.31-0.242-9.45 0.628-1.4-1.58-4.42 1.61-4.26 3.73-0.344-0.01-1.88-1.95-1.15 0.488-3.41 0.244-6.96 0.0215-10.4-1.65-2.64 7.11-1.22 2.51-3.11-0.366-2e-3 -0.786-0.0183-1.22-0.0156zm-14.7 0.174c-0.936 0.0197-1.77 0.47-2.29 1.54-0.125 8.28 0.481 16.6 0.0781 24.8-1.21 3.07 2.05 4.28 5.1 2.28 3.84-1.51 4.12-5.29 4.14-8.33 0.084-1.74-0.544-3.4-1.96-4.71-4.7-2.82 0.455-5.63 0.449-9.29 1.01-2.56-2.71-6.38-5.52-6.32zm-27.8 0.301c1.11-0.0269 2.02 0.658 2.53 1.42 3.14 5.76 2.61 12.3 2.55 18.5 0.0126 2.73-0.786 11.7-5.52 7.54-2.72-4.9-2.99-10.5-3.06-15.8 0.538-3.77-1-9.44 3.5-11.6zm13.3 0.508c4.4 1.56 4.3 9.02-0.0996 11.1-0.484-3.55 0.0181-7.4 0-11.1zm39.5 0c4.4 1.56 4.3 9.02-0.0996 11.1-0.484-3.55 0.0181-7.4 0-11.1zm-24.6 0.473c1.67 7e-3 4.2 2.31 3.78 3.81-0.118 2.71-1.39 6.77-4.99 7.3-0.0619-3.14-0.124-6.27-0.186-9.41 0.0526-1.24 0.638-1.71 1.4-1.7zm0.0566 12.8c1.9-0.218 5 1.8 4.76 4.31 1.43 3.86 0.232 9.52-5.8 9.62-6.1e-4 -3.58-0.0311-7.16-0.129-10.7-0.689-2.11 0.0251-3.05 1.17-3.18zm-38 20.9c-2.32 0.0489-4.74 0.815-6.63 1.75l0.0664 0.158c0.635 4.49 5.08-0.677 8.02 0.996 5.66 3.1-1.33 7.34-4.86 8.19-3.5 1.66-3.76 5.78-3.58 9.16h11.3c2.34 0.691 2.39-0.908 2.16-2.8h-8.35c-4.1 0.68-0.453-5.16 2.16-5.01 4.35-1.01 8.52-5.39 5.75-9.91-1.49-1.93-3.7-2.6-6.02-2.55zm40.9 0c-2.32 0.0489-4.73 0.815-6.63 1.75l0.0664 0.158c0.635 4.49 5.08-0.677 8.02 0.996 5.66 3.1-1.33 7.34-4.86 8.19-3.5 1.66-3.76 5.78-3.58 9.16h11.3c2.34 0.691 2.39-0.908 2.16-2.8h-8.35c-4.1 0.68-0.453-5.16 2.16-5.01 4.35-1.01 8.52-5.39 5.75-9.91-1.49-1.93-3.7-2.6-6.02-2.55zm-19.9 0.0684c-0.229-8e-3 -0.463-8e-3 -0.697 2e-3 -8.07-0.238-12.6 9.69-8.28 16.1 3.61 6.37 14.1 5.87 17-0.854 3.49-6.13-0.928-15-8.04-15.3zm40.9 0c-0.229-8e-3 -0.461-8e-3 -0.695 2e-3 -8.07-0.238-12.6 9.69-8.28 16.1 3.61 6.37 14.1 5.87 17-0.854 3.49-6.13-0.93-15-8.04-15.3zm-41.6 2.95c4.53-0.118 7.42 4.73 6.54 8.88-0.436 5.09-7.18 7.89-10.9 4.23-4.59-3.94-2.15-13.3 4.33-13.1zm40.9 0c4.53-0.118 7.42 4.73 6.54 8.88-0.436 5.09-7.18 7.89-10.9 4.23-4.59-3.94-2.15-13.3 4.33-13.1z" fill="none" stroke="#000" stroke-width="1.56"/>
	</g>
</svg>
