<svg width="6.77mm" height="7.5mm" version="1.1" viewBox="0 0 6.77 7.5" xmlns="http://www.w3.org/2000/svg">
	<defs>
		<style type="text/css"><![CDATA[
    .fil1 {fill:none}
    .fil0 {fill:#424242}
   ]]></style>
	</defs>
	<g transform="translate(-75.3 -145)">
		<g transform="matrix(.00506 0 0 .00506 76.2 147)">
			<g clip-rule="evenodd" fill-rule="evenodd">
				<path d="m999 733c-13.8 22.9-26.3 46.8-41.7 68.6-76.8 109-182 173-313 192-66.2 9.98-133 7.86-198-4.58-69.7-13.2-133-43.2-191-82.8-120-81.1-202-190-239-330-24.4-93.9-22.1-187 19.3-276 10.8-23.3 25.3-45.1 40.2-66.2 17.2-24.3 36.7-47.1 56.6-69.7-3.38 7.89-6.94 15.7-10.1 23.7-37.2 93.9-37.6 189-9.02 285 38.9 130 119 230 231 306 100 67.8 211 100 332 96.8 91.8-2.6 178-24.7 253-80.4 24.9-18.6 46.8-41.3 70-62.1 0.367 0.112 0.739 0.222 1.11 0.333z"/>
				<path d="m1024 475c-7.51 14.8-14 29.9-22.4 43.8-53.7 89.8-133 141-236 157-52.9 8.3-106 6.77-158-3.42-37.7-7.38-72.9-23.6-106-43.5-95.8-57.3-164-137-193-246-24.3-93.2-11.3-181 47-260 11.4-15.4 22.2-31.3 33.3-46.9 0.379-0.535 0.992-0.902 2.34-2.1-0.418 2.04-0.443 3.36-0.947 4.45-42.3 91.8-38.9 184 4.68 273 68.2 139 182 220 336 239 86.5 10.9 167-8.23 237-62.5 20-15.5 37-34.9 56-53.2z"/>
				<path d="m605 24c-4.28 17.4-10.1 34.3-12.4 51.7-7.48 56.2 9.26 107 40.7 152 47.2 68.7 113 106 196 116 26.3 3.07 52.4 2.89 78.3-3.25 29.3-6.97 41-14 82.2-48.8-2.51 4.83-3.81 7.74-5.46 10.4-38.8 63.7-95.4 95.5-170 98.5-128 5.2-233-91.4-257-191-14-58.8-4.69-113 31.1-163 5.62-7.77 11.3-15.5 16.9-23.2z"/>
			</g>
		</g>
	</g>
</svg>
