<svg width="6.77mm" height="7.5mm" version="1.1" viewBox="0 0 6.77 7.5" xmlns="http://www.w3.org/2000/svg">
	<defs>
		<style type="text/css"><![CDATA[
    .fil1 {fill:none}
    .fil0 {fill:#424242}
   ]]></style>
	</defs>
	<g transform="translate(-75.3 -145)">
		<g id="_x31_87-js" transform="matrix(.012 0 0 .012 75.7 146)">
			<rect x="26" y="26" width="460" height="460" fill="#f0db4f"/>
			<path d="m276 385c0 44.8-26.3 65.2-64.6 65.2-34.6 0-54.6-17.9-64.9-39.5l35.2-21.3c6.78 12 12.9 22.2 27.8 22.2 14.2 0 23.2-5.54 23.2-27.2v-147h43.2z" fill="#323330"/>
			<path d="m379 450c-40.1 0-66.1-19.1-78.8-44.2l35.2-20.3c9.24 15.1 21.4 26.3 42.6 26.3 17.9 0 29.4-8.93 29.4-21.4 0-14.8-11.7-20-31.5-28.8l-10.8-4.62c-31.2-13.2-51.9-30-51.9-65.2 0-32.4 24.7-57.1 63.2-57.1 27.5 0 47.2 9.55 61.4 34.6l-33.7 21.6c-7.39-13.2-15.4-18.5-27.8-18.5-12.6 0-20.6 8.01-20.6 18.5 0 12.9 8.01 18.2 26.6 26.3l10.8 4.62c36.8 15.7 57.4 31.8 57.4 68 2e-3 38.8-30.6 60.2-71.6 60.2z" fill="#323330"/>
		</g>
	</g>
</svg>
