<svg width="77.275mm" height="34.264mm" version="1.1" viewBox="0 0 77.275 34.264" xmlns="http://www.w3.org/2000/svg">
	<g transform="translate(-103.11 -141.72)">
		<circle cx="119.15" cy="102.48" r="5.3454" fill="#666" fill-rule="evenodd" opacity=".3" style="paint-order:stroke markers fill"/>
		<circle cx="126.1" cy="110.63" r="5.3454" fill="#666" fill-rule="evenodd" opacity=".3" style="paint-order:stroke markers fill"/>
		<circle cx="133.05" cy="102.35" r="5.3454" fill="#666" fill-rule="evenodd" opacity=".3" style="paint-order:stroke markers fill"/>
		<circle cx="125.96" cy="94.197" r="5.3454" fill="#666" fill-rule="evenodd" opacity=".3" style="paint-order:stroke markers fill"/>
		<g transform="matrix(.022203 0 0 .020935 113.55 95.321)">
			<path class="linkedin" d="m130 289h53.8v173h-53.8zm27-86c17.2 0 31.2 14 31.2 31.2s-14 31.2-31.2 31.2c-17.3 0-31.2-14-31.2-31.2s13.9-31.2 31.2-31.2"/>
			<path class="linkedin" d="m218 289h51.5v23.7h0.7c7.2-13.6 24.7-27.9 50.9-27.9 54.4 0 64.5 35.8 64.5 82.4v94.8h-53.7v-84.1c0-20.1-0.3-45.9-27.9-45.9-28 0-32.2 21.9-32.2 44.4v85.6h-53.7z"/>
		</g>
		<g transform="matrix(.20544 -.21667 .20163 .22076 121.55 93.637)">
			<path id="mailto" d="m21.5 11.1-17.9-9c-0.9-0.4-1.9 0.4-1.5 1.3l2.5 6.7 11.4 1.9-11.4 1.9-2.5 6.7c-0.3 0.9 0.6 1.7 1.5 1.2l17.9-9c0.7-0.3 0.7-1.3 0-1.7z"/>
		</g>
		<g transform="matrix(.4466 0 0 .4466 120.73 105.42)">
			<path id="github" d="m14.4 13c0.269 0 0.492 0.133 0.686 0.396 0.192 0.265 0.294 0.588 0.294 0.975 0 0.385-0.102 0.711-0.294 0.973-0.193 0.265-0.417 0.396-0.686 0.396-0.278 0-0.522-0.131-0.715-0.396-0.192-0.262-0.294-0.588-0.294-0.973 0-0.387 0.102-0.71 0.294-0.975 0.192-0.264 0.436-0.396 0.715-0.396m3.44-3.56c0.746 0.811 1.12 1.8 1.12 2.95 0 0.748-0.086 1.42-0.259 2.02-0.175 0.597-0.394 1.08-0.654 1.46-0.264 0.376-0.588 0.705-0.974 0.989-0.386 0.286-0.741 0.492-1.06 0.623-0.325 0.132-0.695 0.233-1.11 0.306-0.417 0.071-0.726 0.111-0.943 0.123-0.213 9e-3 -0.438 0.014-0.685 0.014-0.055 0-0.243 4e-3 -0.547 0.015-0.301 0.013-0.56 0.016-0.762 0.016s-0.461-3e-3 -0.762-0.016c-0.304-0.011-0.492-0.015-0.547-0.015-0.246 0-0.472-5e-3 -0.685-0.014-0.218-0.012-0.526-0.052-0.943-0.123-0.423-0.072-0.786-0.174-1.11-0.306-0.324-0.131-0.68-0.337-1.06-0.623-0.387-0.284-0.711-0.613-0.975-0.989-0.261-0.375-0.479-0.862-0.654-1.46-0.173-0.6-0.259-1.28-0.259-2.02 0-1.16 0.379-2.14 1.12-2.95-0.082-0.041-0.085-0.447-8e-3 -1.22 0.063-0.771 0.227-1.48 0.495-2.13 0.934 0.099 2.09 0.629 3.47 1.58 0.466-0.119 1.1-0.183 1.92-0.183 0.852 0 1.49 0.064 1.92 0.184 0.629-0.425 1.23-0.771 1.8-1.03 0.584-0.261 1-0.416 1.27-0.457l0.396-0.09c0.27 0.649 0.434 1.36 0.496 2.13 0.076 0.769 0.073 1.18-9e-3 1.22m-5.84 7.82c1.69 0 2.95-0.202 3.82-0.607 0.855-0.404 1.29-1.24 1.29-2.5 0-0.73-0.273-1.34-0.822-1.83-0.278-0.263-0.613-0.425-0.989-0.486-0.375-0.061-0.949-0.061-1.72 0-0.769 0.062-1.3 0.09-1.58 0.09-0.385 0-0.8-0.018-1.32-0.059-0.52-0.04-0.928-0.065-1.22-0.078-0.294-9e-3 -0.609 0.027-0.958 0.108-0.345 0.082-0.629 0.224-0.853 0.425-0.521 0.469-0.79 1.08-0.79 1.83 0 1.26 0.426 2.09 1.28 2.5 0.85 0.405 2.11 0.607 3.8 0.607h0.061m-2.43-4.26c0.268 0 0.492 0.133 0.685 0.396 0.192 0.265 0.294 0.588 0.294 0.975 0 0.385-0.102 0.711-0.294 0.973-0.192 0.265-0.417 0.396-0.685 0.396-0.279 0-0.522-0.131-0.716-0.396-0.192-0.262-0.294-0.588-0.294-0.973 0-0.387 0.102-0.71 0.294-0.975 0.193-0.264 0.436-0.396 0.716-0.396"/>
		</g>
		<path transform="matrix(.84624 .1341 -.1341 .84624 69.607 -34.425)" d="m127.05 149.26-5.3371-1.8099-4.5166 3.3706 0.072-5.6352-4.6013-3.254 5.3816-1.6729 1.6729-5.3816 3.254 4.6013 5.6352-0.072-3.3706 4.5166z" fill="#00000c" fill-rule="evenodd" opacity=".3" style="paint-order:stroke markers fill"/>
		<g transform="matrix(.62253 0 0 .62253 64.632 4.6568)" fill="none" stroke="#000" stroke-linecap="round" stroke-linejoin="round">
			<line class="codepen" x1="109.92" x2="109.92" y1="161.13" y2="158.54" stroke-width=".83434"/>
			<polyline class="codepen" transform="matrix(.43759 0 0 .3977 104.67 152.38)" points="22 8.5 12 15.5 2 8.5" stroke-width="2"/>
			<polyline class="codepen" transform="matrix(.43759 0 0 .3977 104.67 152.38)" points="2 15.5 12 8.5 22 15.5" stroke-width="2"/>
			<line class="codepen" x1="109.92" x2="109.92" y1="153.17" y2="155.76" stroke-width=".83434"/>
			<polygon class="codepen" transform="matrix(.43759 0 0 .3977 104.67 152.38)" points="2 15.5 2 8.5 12 2 22 8.5 22 15.5 12 22" stroke-width="2"/>
		</g>
	</g>
</svg>
