<svg width="6.77mm" height="7.5mm" version="1.1" viewBox="0 0 6.77 7.5" xmlns="http://www.w3.org/2000/svg">
	<defs>
		<style type="text/css"><![CDATA[
    .fil1 {fill:none}
    .fil0 {fill:#424242}
   ]]></style>
	</defs>
	<g transform="translate(-75.3 -145)">
		<path d="m80 149c-0.334-1.47-1.12-1.95-1.21-2.14-0.0931-0.13-0.194-0.379-0.194-0.379-5.29e-4 5e-3 -0.0011 8e-3 -0.0013 0.013v3e-3h-2.65e-4c-5.29e-4 4e-3 -7.93e-4 7e-3 -0.0011 0.0103v4e-3h-5.29e-4c0 3e-3 -5.29e-4 5e-3 -5.29e-4 7e-3v7e-3h-7.94e-4c-2.65e-4 2e-3 -2.65e-4 5e-3 -7.94e-4 7e-3v6e-3h-5.29e-4c0 2e-3 0 4e-3 -5.29e-4 6e-3v5e-3h-5.29e-4c0 3e-3 -2.65e-4 6e-3 -5.29e-4 8e-3v5.2e-4c-7.94e-4 4e-3 -0.0016 9e-3 -0.0024 0.0132v2e-3h-5.29e-4c-2.64e-4 1e-3 -7.94e-4 2e-3 -7.94e-4 3e-3v4e-3h-7.93e-4v6e-3h-0.0013v5e-3h-0.0013v6e-3h-0.0011v5e-3h-0.0011v5e-3h-0.0016v4e-3h-0.0011v5e-3h-0.0011v4e-3h-0.0013v3e-3h-7.94e-4v4e-3h-0.0011c-2.65e-4 2.6e-4 -2.65e-4 7.9e-4 -2.65e-4 1e-3v3e-3h-7.93e-4c-2.65e-4 5.3e-4 -2.65e-4 1e-3 -2.65e-4 2e-3v2e-3h-5.29e-4c-2.65e-4 7.9e-4 -5.29e-4 2e-3 -5.29e-4 3e-3 -7.94e-4 2e-3 -0.0019 4e-3 -0.0026 6e-3v5.3e-4c-5.29e-4 5.3e-4 -0.0011 1e-3 -0.0013 2e-3v2e-3h-0.0011v2e-3h-0.0013v2e-3h-7.94e-4v3e-3h-0.0016v4e-3h-0.0011v1e-3h-0.0011v2e-3h-0.0011v3e-3h-0.0011v2e-3h-0.0016v3e-3h-0.0011v2e-3h-0.0013v2e-3h-7.93e-4v3e-3h-0.0013v2e-3h-0.0011v2e-3h-0.0011v2e-3h-0.0016v2e-3h-0.0011v2e-3h-0.0013v2e-3h-0.0011v3e-3h-0.0013v1e-3h-7.94e-4v2e-3h-0.0016v1e-3h-0.0011v3e-3h-0.0011v1e-3h-0.0011v2e-3h-0.0013v2e-3h-7.94e-4l-5.29e-4 1e-3v1e-3h-5.29e-4c-2.65e-4 5.3e-4 -5.29e-4 5.3e-4 -5.29e-4 1e-3v2.7e-4h-2.65e-4c-2.65e-4 7.9e-4 -5.29e-4 1e-3 -0.0011 2e-3v8e-4h-2.65e-4c-0.0013 2e-3 -0.0021 3e-3 -0.0032 5e-3v2.6e-4c-5.29e-4 5.3e-4 -0.0019 2e-3 -0.0024 3e-3v5.3e-4h-2.65e-4c-2.64e-4 2.6e-4 -7.93e-4 5.3e-4 -7.93e-4 7.9e-4v7.9e-4h-5.3e-4l-7.93e-4 8e-4v2.6e-4h-2.65e-4c0 2.7e-4 -5.29e-4 5.3e-4 -7.94e-4 1e-3v1e-3h-7.93e-4l-5.3e-4 5.3e-4v5.3e-4h-5.29e-4c0 5.3e-4 -5.29e-4 5.3e-4 -5.29e-4 7.9e-4v8e-4h-0.0011c0 2.6e-4 -2.65e-4 5.2e-4 -5.29e-4 7.9e-4v2e-3h-7.94e-4v1e-3h-0.0011v2e-3h-0.0011v2e-3h-0.0013v-2e-3h-0.0013v1e-3h-0.0011v2e-3h-0.0013v2e-3h-0.0013v1e-3h-0.0011v2e-3h-0.0011v1e-3h-0.0011v2e-3h-0.0016v1e-3h-0.0011v2e-3h-0.0013v1e-3h-0.0011v1e-3h-0.0013v3e-3h-5.29e-4v1e-3h-0.0016v1e-3h-0.0011v5.3e-4h-0.0011v1e-3h-0.0013v3e-3h-0.0011v1e-3h-0.0013v1e-3h-0.0011v2e-3h-0.0013v1e-3h-0.0013v1e-3h-0.0011v1e-3h-0.0011v3e-3h-0.0011v1e-3h-0.0016v1e-3h-0.0011v1e-3h-0.0013v2e-3h-0.0011v1e-3h-0.0013v2e-3h-0.0011v1e-3h-0.0016v2e-3h-5.3e-4v1e-3h-0.0011v1e-3h-0.0013v1e-3h-0.0011v2e-3h-0.0013v1e-3h-7.94e-4c-2.64e-4 2.7e-4 -2.64e-4 5.3e-4 -2.64e-4 5.3e-4v5.3e-4h-5.3e-4l-0.0011 1e-3s-5.29e-4 5.3e-4 -0.0011 7.9e-4v2e-3h-0.0011v1e-3h-0.0011v1e-3h-0.0011v1e-3h-7.94e-4l-7.94e-4 7.9e-4v8e-4h-5.29e-4l-5.29e-4 5.3e-4v7.9e-4h-5.29e-4c-0.0013 2e-3 -0.0019 3e-3 -0.0037 4e-3 -5.3e-4 5.3e-4 -0.0021 2e-3 -0.0032 3e-3 -0.0032 2e-3 -0.0071 6e-3 -0.0103 8e-3 -0.0021 1e-3 -0.0042 3e-3 -0.0058 4e-3v2.7e-4h-2.65e-4c-0.0042 3e-3 -0.0082 7e-3 -0.013 0.0103v2.6e-4c-0.0063 5e-3 -0.0124 0.0103-0.0196 0.0164v-2.7e-4h-5.29e-4c-0.0151 0.0124-0.031 0.0265-0.0492 0.0421v2.6e-4h-2.65e-4c-0.0447 0.0392-0.0979 0.0894-0.157 0.15l-4e-3 4e-3 -0.0011 1e-3c-0.36 0.372-0.927 1.15-0.987 2.4-0.0053 0.104-0.0042 0.205 0.0016 0.303v2e-3c0.0288 0.494 0.184 0.916 0.378 1.26v2.7e-4c0.0773 0.137 0.161 0.261 0.245 0.372v2.6e-4c0.292 0.385 0.589 0.613 0.665 0.668 0.117 0.271 0.106 0.735 0.106 0.735l0.17 0.0569s-0.0347-0.45 0.014-0.667c0.0151-0.068 0.0508-0.126 0.0923-0.175 0.028-0.0198 0.111-0.0796 0.211-0.171 0.0048-5e-3 0.0074-0.01 0.0116-0.0143 0.402-0.375 1.15-1.3 0.896-2.8z" stroke-width=".265"/>
	</g>
</svg>
