<svg width="8.54mm" height="5.39mm" version="1.1" viewBox="0 0 8.54 5.39" xmlns="http://www.w3.org/2000/svg">
	<defs>
		<style type="text/css"><![CDATA[
    .fil1 {fill:none}
    .fil0 {fill:#424242}
   ]]></style>
	</defs>
	<g transform="translate(-74.5 -146)">
		<path d="m75.5 150h0.216v-0.855l0.339 0.744c0.0374 0.0903 0.0925 0.123 0.2 0.123 0.108 0 0.156-0.033 0.198-0.123l0.335-0.744v0.855h0.216v-0.855c0-0.0815-0.033-0.123-0.104-0.145-0.163-0.0485-0.275-7e-3 -0.324 0.104l-0.33 0.736-0.319-0.736c-0.0484-0.112-0.161-0.152-0.324-0.104-0.0661 0.022-0.101 0.0639-0.101 0.145z"/>
		<path d="m77.2 150h0.216v0.469c0 0.0264 0.0066 0.0859 0.126 0.0903h0.471v-0.562h0.216v0.771c0 0.189-0.233 0.231-0.341 0.231h-0.685v-0.148h0.685c0.137-0.0154 0.123-0.0859 0.123-0.108v-0.0551h-0.46c-0.216 0-0.352-0.0969-0.352-0.205 0.0022-9e-3 0.0066-0.48 0.0022-0.485z"/>
		<path d="m81.9 149c-0.134-4e-3 -0.233 0.011-0.324 0.044-0.0264 0.011-0.0639 0.011-0.0661 0.0418 0.0154 0.0154 0.0154 0.033 0.0264 0.0529 0.0176 0.033 0.0551 0.0771 0.0859 0.101 0.033 0.0264 0.0705 0.0529 0.108 0.0771 0.0639 0.0418 0.137 0.0639 0.2 0.104 0.0374 0.022 0.0749 0.0529 0.108 0.0771 0.0176 0.0154 0.0308 0.033 0.0529 0.044v-4e-3c-0.011-0.0154-0.0154-0.0374-0.0264-0.0529-0.0154-0.0154-0.033-0.0308-0.0484-0.0485-0.0484-0.0639-0.108-0.123-0.172-0.167-0.0529-0.0374-0.172-0.0859-0.189-0.15l-0.0044-4e-3c0.0374-4e-3 0.0771-0.0154 0.115-0.0264 0.0551-0.0154 0.108-0.011 0.167-0.0264 0.0264-7e-3 0.0529-0.0154 0.0771-0.022v-0.0154c-0.0308-0.0308-0.0529-0.0705-0.0815-0.0969-0.0859-0.0749-0.178-0.145-0.275-0.205-0.0529-0.033-0.119-0.0551-0.172-0.0815-0.0176-0.011-0.0529-0.0154-0.0639-0.0308-0.0308-0.0374-0.044-0.0859-0.0661-0.126-0.0484-0.0925-0.0925-0.194-0.137-0.291-0.0308-0.0639-0.0484-0.13-0.0859-0.189-0.172-0.282-0.357-0.454-0.643-0.621-0.0639-0.033-0.134-0.0485-0.211-0.0661-0.0418 0-0.0815-4e-3 -0.123-7e-3 -0.0264-0.011-0.0529-0.0441-0.0771-0.0595-0.0925-0.0595-0.339-0.189-0.41-0.0176-0.044 0.108 0.0661 0.216 0.104 0.269 0.0308 0.0374 0.0639 0.0815 0.0859 0.123 0.011 0.0308 0.0154 0.0595 0.0264 0.0903 0.0264 0.0749 0.0529 0.152 0.0859 0.222 0.0176 0.033 0.0374 0.0705 0.0639 0.104 0.0154 0.0176 0.0374 0.0264 0.0418 0.0551-0.022 0.033-0.0264 0.0815-0.0374 0.123-0.0595 0.185-0.0374 0.421 0.0484 0.557 0.0264 0.0418 0.0903 0.134 0.174 0.0969 0.0749-0.0308 0.0595-0.123 0.0771-0.209 0.0044-0.0176 0-0.033 0.011-0.044v4e-3c0.022 0.044 0.044 0.0925 0.0661 0.137 0.0529 0.0815 0.141 0.167 0.216 0.222 0.0418 0.0308 0.0705 0.0815 0.123 0.101v-4e-3h-0.0044c-0.011-0.0154-0.0264-0.022-0.0374-0.033-0.0308-0.0308-0.0639-0.0661-0.0859-0.101-0.0705-0.0925-0.13-0.198-0.185-0.302-0.0264-0.0529-0.0484-0.108-0.0705-0.161-0.011-0.0176-0.011-0.0485-0.0264-0.0595-0.0264 0.0374-0.0639 0.0661-0.0771 0.112-0.0308 0.0705-0.033 0.161-0.044 0.249-0.0066 0-0.0044 0-0.0066 4e-3 -0.0529-0.0154-0.0705-0.0661-0.0925-0.115-0.0484-0.119-0.0595-0.308-0.0154-0.443 0.011-0.033 0.0639-0.145 0.0418-0.178-0.011-0.0308-0.044-0.0485-0.0639-0.0749-0.022-0.0308-0.044-0.0705-0.0595-0.108-0.0418-0.0925-0.0595-0.198-0.104-0.291-0.0176-0.044-0.0551-0.0903-0.0815-0.126-0.0308-0.044-0.0661-0.0771-0.0925-0.13-0.0066-0.0176-0.0176-0.0485-0.0066-0.0661 0.0044-0.0154 0.011-0.0176 0.022-0.022 0.022-0.0176 0.0815 4e-3 0.104 0.0154 0.0639 0.0264 0.112 0.0485 0.163 0.0815 0.022 0.0154 0.0485 0.0485 0.0771 0.0551h0.033c0.0529 0.011 0.112 4e-3 0.163 0.0176 0.0903 0.0308 0.167 0.0705 0.238 0.115 0.216 0.137 0.399 0.335 0.518 0.568 0.0176 0.0375 0.0308 0.0749 0.044 0.112 0.033 0.0815 0.0771 0.163 0.112 0.244 0.033 0.0771 0.0661 0.156 0.119 0.222 0.0264 0.033 0.123 0.0529 0.172 0.0705 0.033 0.0154 0.0859 0.0308 0.115 0.044 0.0551 0.033 0.112 0.0749 0.167 0.112 0.0242 0.0286 0.108 0.0705 0.115 0.104z"/>
		<path d="m80.2 148c-0.0308 0-0.0484 4e-3 -0.0661 7e-3v4e-3h0.0044c0.0154 0.0264 0.0374 0.044 0.0529 0.0661 0.0154 0.0264 0.0264 0.0529 0.0374 0.0771l0.0044-4e-3c0.022-0.0154 0.033-0.044 0.033-0.0815-0.011-0.011-0.011-0.022-0.0176-0.033-0.0132-0.011-0.0352-0.0198-0.0484-0.0352z"/>
		<path d="m78.4 150h0.626c0.0749 0 0.141-0.0154 0.2-0.0419 0.0925-0.044 0.137-0.101 0.137-0.178v-0.161c0-0.0639-0.0529-0.119-0.152-0.161-0.0529-0.0176-0.119-0.0308-0.185-0.0308h-0.26c-0.0903 0-0.13-0.0264-0.141-0.0859v-0.0176-0.0925-0.0176c0.011-0.044 0.033-0.0551 0.112-0.0639h0.0176 0.617v-0.145h-0.606c-0.0903 0-0.134 4e-3 -0.174 0.0176-0.126 0.0419-0.185 0.104-0.185 0.216v0.126c0 0.0969 0.108 0.183 0.293 0.2h0.0639 0.222 0.022c0.0661 7e-3 0.0969 0.0176 0.119 0.044 0.0154 0.0154 0.0154 0.0264 0.0154 0.0418v0.126c0 0.0154-0.011 0.033-0.0308 0.0529-0.0176 0.0176-0.0529 0.0308-0.0925 0.0308h-0.022-0.599v0.141z"/>
		<path d="m80.7 150c0 0.15 0.112 0.231 0.335 0.244 0.022 0 0.0418 4e-3 0.0639 4e-3h0.566v-0.145h-0.568c-0.126 0-0.174-0.0308-0.174-0.108v-0.747h-0.22v0.751z"/>
		<path d="m79.5 150v-0.513c0-0.13 0.0925-0.211 0.275-0.233 0.0176 0 0.0418-4e-3 0.0595-4e-3h0.412c0.022 0 0.0418 0 0.0639 4e-3 0.183 0.0264 0.271 0.104 0.271 0.233v0.513c0 0.108-0.0374 0.163-0.126 0.2l0.211 0.194h-0.249l-0.172-0.156-0.174 0.011h-0.231c-0.0374 0-0.0815-4e-3 -0.126-0.0154-0.15-0.044-0.216-0.115-0.216-0.233zm0.233-0.0132c0 7e-3 0.0044 0.0154 0.0044 0.022 0.011 0.0595 0.0661 0.0925 0.152 0.0925h0.198l-0.178-0.163h0.249l0.156 0.141c0.0308-0.0154 0.0484-0.0418 0.0551-0.0705v-0.022-0.496-0.0176c-0.011-0.0551-0.0661-0.0903-0.152-0.0903h-0.324c-0.0969 0-0.161 0.0418-0.161 0.108z"/>
	</g>
</svg>
