<svg width="6.77mm" height="7.5mm" version="1.1" viewBox="0 0 6.77 7.5" xmlns="http://www.w3.org/2000/svg">
	<defs>
		<style type="text/css"><![CDATA[
    .fil1 {fill:none}
    .fil0 {fill:#424242}
   ]]></style>
	</defs>
	<g transform="translate(-75.3 -145)">
		<g transform="matrix(.0806 0 0 .0806 73.5 144)">
			<path class="st1" d="m64 95.9c-0.9 0-1.7-0.2-2.5-0.7l-7.8-4.6c-1.2-0.7-0.6-0.9-0.2-1 1.6-0.6 1.9-0.7 3.5-1.6 0.2-0.1 0.4-0.1 0.6 0.1l6 3.6c0.2 0.1 0.5 0.1 0.7 0l23.4-13.5c0.2-0.1 0.4-0.4 0.4-0.6v-27c0-0.3-0.1-0.5-0.4-0.6l-23.3-13.6c-0.2-0.1-0.5-0.1-0.7 0l-23.4 13.4c-0.2 0.1-0.4 0.4-0.4 0.6v27c0 0.2 0.1 0.5 0.4 0.6l6.4 3.7c3.5 1.7 5.6-0.3 5.6-2.4v-26.5c0-0.4 0.3-0.7 0.7-0.7h3c0.4 0 0.7 0.3 0.7 0.7v26.6c0 4.7-2.5 7.3-6.9 7.3-1.4 0-2.4 0-5.4-1.5l-6.1-3.5c-1.5-0.9-2.5-2.5-2.5-4.3v-27c0-1.7 0.9-3.4 2.5-4.3l23.4-13.5c1.5-0.8 3.5-0.8 4.9 0l23.4 13.5c1.5 0.9 2.5 2.5 2.5 4.3v27c0 1.7-0.9 3.4-2.5 4.3l-23.5 13.6c-0.8 0.4-1.6 0.6-2.5 0.6z"/>
			<path class="st1" d="m71.3 77.3c-10.2 0-12.4-4.7-12.4-8.6 0-0.4 0.3-0.7 0.7-0.7h3c0.3 0 0.6 0.2 0.7 0.6 0.4 3.1 1.8 4.6 8 4.6 4.9 0 7-1.1 7-3.7 0-1.5-0.6-2.6-8.3-3.4-6.4-0.6-10.4-2-10.4-7.2 0-4.7 4-7.5 10.7-7.5 7.5 0 11.2 2.6 11.7 8.2 0 0.2-0.1 0.4-0.2 0.5s-0.3 0.2-0.5 0.2h-3c-0.3 0-0.6-0.2-0.7-0.5-0.7-3.2-2.5-4.3-7.3-4.3-5.4 0-6 1.9-6 3.3 0 1.7 0.7 2.2 8 3.2 7.2 0.9 10.6 2.3 10.6 7.3 0 5.1-4.2 8-11.6 8z"/>
		</g>
	</g>
	<style type="text/css">.st0{fill:#46483E;}
	.st1{fill:#81CF08;}</style>
</svg>
